# AST/ASF file generated using VICON BodyLanguage
# -----------------------------------------------
:version 1.10
:name VICON
:units
  mass 1.0
  length 0.45
  angle deg
:documentation
   .ast/.asf automatically generated from VICON data using
   VICON BodyBuilder and BodyLanguage model FoxedUp or BRILLIANT.MOD
:root
   order TX TY TZ RX RY RZ
   axis XYZ
   position 0 0 0  
   orientation 0 -0 0 
:bonedata
  begin
     id 1 
     name lhipjoint
     direction 0.432694 -0.693742 0.575759 
     length 2.19277 
     axis 0 -0 0  XYZ
  end
  begin
     id 2 
     name lfemur
     direction 0.34202 -0.939693 0  
     length 6.69022  
     axis 0 -0 20  XYZ
    dof rx ry rz
    limits (-160.0 20.0)
           (-70.0 70.0)
           (-60.0 70.0)
  end
  begin
     id 3 
     name ltibia
     direction 0.34202 -0.939693 0   
     length 6.50337   
     axis 0 -0 20   XYZ
    dof rx
    limits (-10.0 170.0)
  end
  begin
     id 4 
     name lfoot
     direction 0.158999 -0.435969 0.885805   
     length 2.70564   
     axis -90 -1.13533e-015 20   XYZ
    dof rx rz
    limits (-45.0 90.0)
           (-70.0 20.0)
  end
  begin
     id 5 
     name ltoes
     direction -0.00592919 0.00964381 0.999936   
     length 1.29929   
     axis -90 -1.13533e-015 20   XYZ
    dof rx
    limits (-90.0 20.0)
  end
  begin
     id 6 
     name rhipjoint
     direction -0.414359 -0.700339 0.581234   
     length 2.17212  
     axis 0 -0 0  XYZ 
  end
  begin
     id 7 
     name rfemur
     direction -0.34202 -0.939693 0   
     length 7.17659   
     axis 0 -0 -20   XYZ
    dof rx ry rz
    limits (-160.0 20.0)
           (-70.0 70.0)
           (-70.0 60.0)
  end
  begin
     id 8 
     name rtibia
     direction -0.34202 -0.939693 0   
     length 6.36669   
     axis 0 -0 -20   XYZ
    dof rx
    limits (-10.0 170.0)
 end
 begin
     id 9 
     name rfoot
     direction -0.137064 -0.37658 0.916188   
     length 2.22351  
     axis -90 1.13533e-015 -20   XYZ
    dof rx rz
    limits (-45.0 90.0)
           (-20.0 70.0)
  end
  begin
     id 10 
     name rtoes
     direction -0.000784077 -0.00289101 0.999996   
     length 1.09522   
     axis -90 1.13533e-015 -20   XYZ
    dof rx
    limits (-90.0 20.0)
  end
  begin
     id 11 
     name lowerback
     direction -0.0176242 0.984912 -0.172157   
     length 1.65301   
     axis 0 -0 0   XYZ
    dof rx ry rz
    limits (-20.0 45.0)
           (-30.0 30.0)
           (-30.0 30.0)
  end
  begin
     id 12 
     name upperback
     direction -0.00218128 0.998776 -0.0494072   
     length 1.67776   
     axis 0 -0 0   XYZ
    dof rx ry rz
    limits (-20.0 45.0)
           (-30.0 30.0)
           (-30.0 30.0)
  end
  begin
     id 13 
     name thorax
     direction 0.00544186 0.999658 0.0255711   
     length 1.72293   
     axis 0 -0 0   XYZ
    dof rx ry rz
    limits (-20.0 45.0)
           (-30.0 30.0)
           (-30.0 30.0)
  end
  begin
     id 14 
     name lowerneck
     direction -0.105325 0.983841 0.144785   
     length 2.14226   
     axis 0 -0 0   XYZ
    dof rx ry rz
    limits (-20.0 45.0)
           (-30.0 30.0)
           (-30.0 30.0)
  end
  begin
     id 15 
     name upperneck
     direction 0.0547957 0.988053 -0.144041   
     length 2.17508   
     axis 0 -0 0   XYZ
    dof rx ry rz
    limits (-20.0 45.0)
           (-30.0 30.0)
           (-30.0 30.0)
  end
  begin
     id 16
     name head
     direction 0.0247488 0.997534 -0.0656813  
     length 2.20048  
     axis 0 -0 0   XYZ
    dof rx ry rz
    limits (-20.0 45.0)
           (-30.0 30.0)
           (-30.0 30.0)
  end
  begin
     id 17 
     name lclavicle
     direction 0.820559 0.567247 -0.0701026  
     length 4.09615  
     axis 0 -0 0   XYZ
    dof ry rz
    limits (-20.0 10.0)
           (0.0 20.0)
  end
  begin
     id 18 
     name lhumerus
     direction 0.999977 -0.0067566 -9.96392e-005   
     length 4.59333   
     axis -180 -30 -90   XYZ
    dof rx ry rz
    limits (-60.0 90.0)
           (-90.0 90.0)
           (-90.0 90.0)
  end
  begin
     id 19
     name lradius
     direction 1 -4.48982e-011 -2.53425e-027   
     length 2.81151   
     axis -180 -30 -90   XYZ
    dof rx
    limits (-10.0 170.0)
  end
  begin
     id 20
     name lwrist
     direction 1 -4.48939e-011 -7.39254e-028   
     length 1.40576   
     axis 2.56395e-016 90 90   XYZ
    dof ry
    limits (-180.0 0.0)
 end
  begin
     id 21 
     name lhand
     direction 1 -4.48939e-011 -1.47851e-027   
     length 0.895651   
     axis 9.43423e-016 90 90   XYZ
    dof rx rz
    limits (-90.0 90.0)
           (-45.0 45.0)
  end
  begin
     id 22 
     name lfingers
     direction 1 -4.48978e-011 -2.95702e-027   
     length 0.722097   
     axis 1.88685e-015 90 90   XYZ
    dof rx
    limits (0.0 90.0)
  end
  begin
     id 23
     name lthumb
     direction 0.707107 -6.34931e-011 0.707107   
     length 1.03679   
     axis -90 45 -9.86935e-015   XYZ
    dof rx rz
    limits (-45.0 45.0)
           (-45.0 45.0)
  end
  begin
     id 24 
     name rclavicle
     direction -0.831414 0.553102 -0.0531864   
     length 4.24872  
     axis 0 -0 0   XYZ 
    dof ry rz
    limits (-10.0 20.0)
           (-20.0 0.0)
  end
  begin
     id 25 
     name rhumerus
     direction -0.999916 -0.000939607 0.0129331  
     length 4.74834   
     axis -180 30 90   XYZ
    dof rx ry rz
    limits (-90.0 60.0)
           (-90.0 90.0)
           (-90.0 90.0)
  end
  begin
     id 26 
     name rradius
     direction -1 -4.48956e-011 -1.31752e-027   
     length 2.79907   
     axis -180 30 90   XYZ
    dof rx
    limits (-10.0 170.0)
  end
  begin
     id 27 
     name rwrist
     direction -1 -4.4897e-011 -7.39254e-028   
     length 1.39954   
     axis 2.56395e-016 -90 -90   XYZ
    dof ry
    limits (-180.0 0.0)
  end
  begin
     id 28
     name rhand
     direction -0.999997 -0.00250697 0.000800838   
     length 0.953304   
     axis 9.43423e-016 -90 -90   XYZ
    dof rx rz
    limits (-90.0 90.0)
           (-45.0 45.0)
  end
  begin
     id 29
     name rfingers
     direction -1 -4.48954e-011 -2.95702e-027   
     length 0.763342   
     axis 1.88685e-015 -90 -90   XYZ
    dof rx
    limits (0.0 90.0)
  end
  begin
     id 30
     name rthumb
     direction -0.709701 -0.00217037 0.7045   
     length 1.10115   
     axis -90 -45 9.86935e-015   XYZ
    dof rx rz
    limits (-45.0 45.0)
           (-45.0 45.0)
  end
:hierarchy
  begin
    root lhipjoint rhipjoint lowerback
    lhipjoint lfemur
    lfemur ltibia
    ltibia lfoot
    lfoot ltoes
    rhipjoint rfemur
    rfemur rtibia
    rtibia rfoot
    rfoot rtoes
    lowerback upperback
    upperback thorax
    thorax lowerneck lclavicle rclavicle
    lowerneck upperneck
    upperneck head
    lclavicle lhumerus
    lhumerus lradius
    lradius lwrist
    lwrist lhand lthumb
    lhand lfingers
    rclavicle rhumerus
    rhumerus rradius
    rradius rwrist
    rwrist rhand rthumb
    rhand rfingers
  end

#!OML:ASF G:\ViconDB\ViconDB\414\test\team2\shane.ASF
:FULLY-SPECIFIED
:DEGREES
79
root 3.32409 16.444 -26.9465 -4.59149 -9.3432 -6.4344
lowerback 10.9209 1.31544 -0.605654
upperback 8.34152 1.68797 -3.3799
thorax 2.68817 0.896805 -3.31995
lowerneck -10.8648 -3.18102 -11.7213
upperneck 40.8895 3.34642 -11.4597
head 17.2427 -2.02461 -2.6126
rclavicle 1.03368e-014 1.59028e-015
rhumerus -18.1574 26.0402 -59.5004
rradius 111.043
rwrist -11.8414
rhand -22.7545 -20.8864
rfingers 7.12502
rthumb 3.68022 -50.8343
lclavicle 4.6118e-014 1.74931e-014
lhumerus -41.7767 -17.6089 88.6929
lradius 37.3044
lwrist -14.7499
lhand -38.0007 6.47343
lfingers 7.12502
lthumb -11.0399 36.1631
rfemur -9.62844 -12.6929 18.7085
rtibia 75.7318
rfoot -11.0795 4.76991
rtoes -14.2368
lfemur -7.99466 4.32897 -9.48106
ltibia 41.0468
lfoot -30.3777 -5.29455
ltoes -7.23785
80
root 3.32339 16.4189 -26.8022 -4.88369 -9.16866 -6.50463
lowerback 10.8947 1.317 -0.609329
upperback 8.56806 1.6962 -3.23295
thorax 2.93791 0.899192 -3.16234
lowerneck -10.6616 -3.289 -11.8127
upperneck 40.4905 3.16868 -11.6086
head 16.9701 -2.09599 -2.65338
rclavicle 1.82882e-014 -3.81667e-014
rhumerus -18.1574 26.0402 -59.5004
rradius 111.043
rwrist -11.8414
rhand -22.7545 -20.8864
rfingers 7.12502
rthumb 3.68022 -50.8343
lclavicle 4.6118e-014 1.74931e-014
lhumerus -41.7767 -17.6089 88.6929
lradius 37.3044
lwrist -14.7499
lhand -38.0007 6.47343
lfingers 7.12502
lthumb -11.0399 36.1631
rfemur -11.0044 -13.1157 19.0389
rtibia 75.9626
rfoot -12.5906 4.82637
rtoes -13.8454
lfemur -7.05203 4.09345 -9.50899
ltibia 40.8391
lfoot -30.8635 -4.89717
ltoes -7.51049
81
root 3.31781 16.4112 -26.658 -5.16118 -8.84152 -6.36954
lowerback 11.0027 1.26514 -0.915378
upperback 8.6794 1.60364 -3.14605
thorax 2.98088 0.83666 -2.8936
lowerneck -10.4394 -3.35263 -11.8248
upperneck 40.0737 2.98813 -11.6682
head 16.6776 -2.14537 -2.66363
rclavicle 3.26007e-014 1.59028e-015
rhumerus -16.5128 23.6516 -57.2641
rradius 114.136
rwrist -3.7039
rhand -24.7985 -11.1288
rfingers 7.12502
rthumb 1.70621 -41.1017
lclavicle 4.6118e-014 1.74931e-014
lhumerus -41.7767 -17.6089 88.6929
lradius 37.3044
lwrist -14.7499
lhand -38.0007 6.47343
lfingers 7.12502
lthumb -11.0399 36.1631
rfemur -12.3324 -13.6968 19.1922
rtibia 75.8202
rfoot -13.6906 4.63772
rtoes -14.4607
lfemur -6.02985 3.67137 -9.73257
ltibia 40.409
lfoot -31.2744 -4.71633
ltoes -7.80621
82
root 3.30661 16.4195 -26.5099 -5.29021 -8.43145 -6.31406
lowerback 10.948 1.23017 -1.17843
upperback 8.72965 1.5399 -2.97548
thorax 3.04788 0.787975 -2.56041
lowerneck -10.181 -3.46592 -11.9874
upperneck 39.7293 2.73213 -11.6012
head 16.4179 -2.23473 -2.60852
rclavicle -1.98785e-014 2.70347e-014
rhumerus -16.0588 20.8758 -57.4368
rradius 115.699
rwrist -2.47219
rhand -24.548 -10.2179
rfingers 7.12502
rthumb 1.94814 -40.1887
lclavicle 4.6118e-014 1.74931e-014
lhumerus -41.7767 -17.6089 88.6929
lradius 37.3044
lwrist -14.7499
lhand -38.0007 6.47343
lfingers 7.12502
lthumb -11.0399 36.1631
rfemur -13.7708 -14.2219 19.5408
rtibia 75.3319
rfoot -14.6237 4.58918
rtoes -14.7269
lfemur -5.05747 3.31785 -9.85461
ltibia 39.7203
lfoot -31.3916 -4.61052
ltoes -8.49593
83
root 3.29802 16.4342 -26.3629 -5.28997 -8.02841 -6.21632
lowerback 10.8153 1.16774 -1.36317
upperback 8.74889 1.44857 -2.85731
thorax 3.12832 0.730487 -2.32275
lowerneck -10.1284 -3.57419 -12.2044
upperneck 39.5068 2.50282 -11.3891
head 16.275 -2.31661 -2.49169
rclavicle -1.70955e-014 -1.27222e-014
rhumerus -15.6445 18.0913 -58.0924
rradius 117.602
rwrist -2.71332
rhand -24.5531 -10.3406
rfingers 7.12502
rthumb 1.94323 -40.3115
lclavicle 4.6118e-014 1.74931e-014
lhumerus -41.7767 -17.6089 88.6929
lradius 37.3044
lwrist -14.7499
lhand -38.0007 6.47343
lfingers 7.12502
lthumb -11.0399 36.1631
rfemur -15.2118 -14.7214 19.8608
rtibia 74.4621
rfoot -15.3717 4.59929
rtoes -14.7057
lfemur -4.15673 3.26576 -9.97353
ltibia 38.8289
lfoot -31.6207 -4.90098
ltoes -8.36613
84
root 3.28714 16.4655 -26.2089 -5.19832 -7.60782 -6.42812
lowerback 10.681 1.05995 -1.15061
upperback 8.66077 1.32384 -2.69675
thorax 3.10274 0.674005 -2.26216
lowerneck -9.92854 -3.66017 -12.1038
upperneck 39.1745 2.30404 -11.5133
head 16.0447 -2.37192 -2.56108
rclavicle -2.46493e-014 3.65764e-014
rhumerus -15.4809 15.3893 -59.1917
rradius 119.648
rwrist -3.74176
rhand -24.4765 -11.1737
rfingers 7.12502
rthumb 2.01719 -41.1439
lclavicle 4.6118e-014 1.74931e-014
lhumerus -41.7767 -17.6089 88.6929
lradius 37.3044
lwrist -14.7499
lhand -38.0007 6.47343
lfingers 7.12502
lthumb -11.0399 36.1631
rfemur -16.6234 -15.153 20.6015
rtibia 73.2328
rfoot -16.0224 4.28214
rtoes -14.3005
lfemur -3.18747 3.22155 -9.7201
ltibia 37.6963
lfoot -31.6457 -5.25074
ltoes -8.56479
85
root 3.27753 16.5066 -26.051 -5.11483 -7.2572 -6.49025
lowerback 10.6791 0.981539 -1.09868
upperback 8.4883 1.21909 -2.53202
thorax 2.91297 0.619347 -2.11176
lowerneck -9.88655 -3.73681 -12.209
upperneck 38.9949 2.14737 -11.4231
head 15.9354 -2.42737 -2.51141
rclavicle -9.93923e-015 4.6118e-014
rhumerus -15.4809 15.3893 -59.1917
rradius 119.648
rwrist -3.74176
rhand -24.4765 -11.1737
rfingers 7.12502
rthumb 2.01719 -41.1439
lclavicle 4.6118e-014 1.74931e-014
lhumerus -41.7767 -17.6089 88.6929
lradius 37.3044
lwrist -14.7499
lhand -38.0007 6.47343
lfingers 7.12502
lthumb -11.0399 36.1631
rfemur -17.8638 -15.6205 21.1195
rtibia 71.6361
rfoot -16.7097 3.91533
rtoes -15.2238
lfemur -2.13419 3.05981 -9.68627
ltibia 36.405
lfoot -31.6107 -5.56002
ltoes -8.42679
86
root 3.26836 16.5618 -25.8943 -5.02031 -6.8617 -6.67214
lowerback 10.6333 0.894121 -0.851119
upperback 8.35834 1.12005 -2.35273
thorax 2.79661 0.576315 -2.05566
lowerneck -9.79764 -3.86293 -12.2712
upperneck 38.652 1.88474 -11.3617
head 15.7278 -2.51167 -2.48325
rclavicle 1.55052e-014 -6.52014e-014
rhumerus -15.4809 15.3893 -59.1917
rradius 119.648
rwrist -3.74176
rhand -24.4765 -11.1737
rfingers 7.12502
rthumb 2.01719 -41.1439
lclavicle 1.55052e-014 -6.52014e-014
lhumerus -37.8683 -22.0704 87.8037
lradius 37.3618
lwrist -17.8897
lhand -41.367 7.48731
lfingers 7.12502
lthumb -14.2853 36.9759
rfemur -18.9854 -15.9964 21.7794
rtibia 69.6995
rfoot -17.2883 3.45684
rtoes -15.0428
lfemur -0.97682 3.01545 -9.48378
ltibia 34.8445
lfoot -31.356 -5.93388
ltoes -8.87535
87
root 3.258 16.6174 -25.7341 -4.91477 -6.34034 -6.906
lowerback 10.7586 0.78524 -0.407238
upperback 8.09161 1.00306 -2.2406
thorax 2.44734 0.533472 -2.18176
lowerneck -9.63467 -4.0354 -12.1286
upperneck 38.3478 1.5093 -11.3466
head 15.5159 -2.62149 -2.52707
rclavicle -2.26615e-014 -4.29375e-014
rhumerus -15.9659 8.54607 -62.9461
rradius 124.932
rwrist -5.48634
rhand -25.9258 -15.3594
rfingers 7.12502
rthumb 0.617384 -45.3383
lclavicle -2.26615e-014 -4.29375e-014
lhumerus -37.7054 -21.4414 87.6855
lradius 36.7496
lwrist -18.2707
lhand -41.2785 6.84827
lfingers 7.12502
lthumb -14.2 36.3429
rfemur -19.9703 -16.5708 22.4581
rtibia 67.4685
rfoot -17.6033 3.086
rtoes -15.5544
lfemur 0.248835 2.73355 -9.24344
ltibia 33.0969
lfoot -30.9628 -6.55851
ltoes -8.75163
88
root 3.24372 16.6825 -25.5738 -4.83847 -5.76742 -7.02701
lowerback 10.8037 0.712987 -0.226825
upperback 7.8974 0.918634 -2.07734
thorax 2.21381 0.493853 -2.10748
lowerneck -9.52012 -4.22445 -12.147
upperneck 37.9282 1.0457 -11.0587
head 15.2547 -2.75069 -2.43063
rclavicle 2.38542e-015 1.74931e-014
rhumerus -16.4045 7.07616 -63.9852
rradius 126.436
rwrist -6.011
rhand -26.3927 -16.8971
rfingers 7.12502
rthumb 0.166506 -46.8767
lclavicle 2.38542e-015 1.74931e-014
lhumerus -37.664 -21.3505 87.8834
lradius 36.5502
lwrist -17.8471
lhand -41.0719 7.02726
lfingers 7.12502
lthumb -14.0009 36.5358
rfemur -20.8243 -16.9388 23.0019
rtibia 64.9759
rfoot -17.94 2.89816
rtoes -15.5132
lfemur 1.58235 2.44713 -9.11115
ltibia 31.1385
lfoot -30.4068 -7.08239
ltoes -8.49318
89
root 3.23242 16.741 -25.4144 -4.73835 -5.06636 -7.28736
lowerback 10.8062 0.578624 0.111196
upperback 7.79302 0.767469 -1.82312
thorax 2.09694 0.425302 -2.02048
lowerneck -9.63239 -4.49391 -12.1339
upperneck 37.3632 0.554605 -10.9616
head 14.987 -2.90818 -2.42414
rclavicle -2.82274e-014 1.59028e-014
rhumerus -16.5687 6.2141 -64.5517
rradius 127.17
rwrist -5.26874
rhand -27.3869 -18.8646
rfingers 7.12502
rthumb -0.79374 -48.8429
lclavicle -2.82274e-014 1.59028e-014
lhumerus -37.2229 -20.9489 87.8643
lradius 36.1118
lwrist -17.8964
lhand -40.7905 6.96217
lfingers 7.12502
lthumb -13.7297 36.4892
rfemur -21.5796 -17.4843 23.644
rtibia 62.2607
rfoot -18.1858 2.97758
rtoes -14.8515
lfemur 2.92782 2.12235 -8.81263
ltibia 29.0364
lfoot -29.7578 -7.70623
ltoes -8.44188
90
root 3.21995 16.8001 -25.2557 -4.59245 -4.34707 -7.58237
lowerback 10.776 0.462123 0.416856
upperback 7.64702 0.637709 -1.52475
thorax 1.95374 0.364451 -1.87106
lowerneck -9.71006 -4.7766 -12.2924
upperneck 36.7685 -0.0363618 -10.5425
head 14.7016 -3.08955 -2.26617
rclavicle -5.56597e-015 0
rhumerus -16.7407 5.85049 -64.7632
rradius 127.701
rwrist -5.25945
rhand -27.7132 -20.1326
rfingers 7.12502
rthumb -1.10891 -50.1095
lclavicle -5.56597e-015 0
lhumerus -36.9702 -20.4122 88.0547
lradius 35.8447
lwrist -17.6884
lhand -40.2819 6.86727
lfingers 7.12502
lthumb -13.2395 36.4268
rfemur -22.3293 -17.9477 24.33
rtibia 59.3639
rfoot -18.3734 3.21363
rtoes -15.2615
lfemur 4.28338 1.56285 -8.56513
ltibia 26.7512
lfoot -29.0147 -7.90992
ltoes -8.7212
91
root 3.20801 16.8572 -25.0928 -4.53587 -3.61666 -7.61492
lowerback 10.8587 0.377267 0.521331
upperback 7.45029 0.533964 -1.33931
thorax 1.69664 0.31063 -1.7294
lowerneck -9.63249 -5.08879 -12.3152
upperneck 36.0359 -0.732491 -10.1607
head 14.3196 -3.29287 -2.15071
rclavicle 8.34896e-015 -9.54166e-015
rhumerus -17.0047 5.93883 -64.6204
rradius 127.912
rwrist -5.75538
rhand -27.8801 -20.9818
rfingers 7.12502
rthumb -1.27006 -50.9578
lclavicle 8.34896e-015 -9.54166e-015
lhumerus -36.6419 -20.1161 88.1844
lradius 35.3451
lwrist -17.627
lhand -39.6818 6.63443
lfingers 7.12502
lthumb -12.661 36.2307
rfemur -22.8717 -18.4126 24.6063
rtibia 56.296
rfoot -18.4712 3.59861
rtoes -15.0111
lfemur 5.72006 1.0317 -8.63042
ltibia 24.513
lfoot -28.2647 -8.10486
ltoes -8.77913
92
root 3.19587 16.9094 -24.9325 -4.37644 -2.8173 -7.66559
lowerback 10.7621 0.236702 0.576831
upperback 7.35893 0.354097 -1.10872
thorax 1.64486 0.217525 -1.50446
lowerneck -9.88058 -5.3941 -12.3472
upperneck 35.2024 -1.3803 -9.71627
head 13.9782 -3.47275 -2.01063
rclavicle -8.34896e-015 0
rhumerus -17.1109 6.4315 -64.1279
rradius 127.525
rwrist -5.50936
rhand -27.9632 -21.2923
rfingers 7.12502
rthumb -1.3504 -51.2677
lclavicle -8.34896e-015 0
lhumerus -36.1265 -19.4636 88.294
lradius 35.0623
lwrist -17.4928
lhand -39.049 6.74141
lfingers 7.12502
lthumb -12.0509 36.3744
rfemur -23.4682 -18.6735 24.8769
rtibia 53.1325
rfoot -18.6158 4.06241
rtoes -15.394
lfemur 7.01115 0.666576 -8.62473
ltibia 22.2521
lfoot -27.465 -8.37266
ltoes -9.20756
